<svg width="21" height="21" viewBox="0 0 21 21" fill="none" xmlns="http://www.w3.org/2000/svg">
<g id="close-circle-line">
<path id="Vector" d="M10.0334 19.2335C5.43103 19.2335 1.70007 15.5025 1.70007 10.9002C1.70007 6.2978 5.43103 2.56684 10.0334 2.56684C14.6357 2.56684 18.3667 6.2978 18.3667 10.9002C18.3667 15.5025 14.6357 19.2335 10.0334 19.2335ZM10.0334 17.5668C13.7153 17.5668 16.7001 14.5821 16.7001 10.9002C16.7001 7.21828 13.7153 4.23351 10.0334 4.23351C6.35151 4.23351 3.36674 7.21828 3.36674 10.9002C3.36674 14.5821 6.35151 17.5668 10.0334 17.5668ZM10.0334 9.72168L12.3904 7.36464L13.5689 8.54315L11.2119 10.9002L13.5689 13.2572L12.3904 14.4357L10.0334 12.0787L7.67638 14.4357L6.49787 13.2572L8.85491 10.9002L6.49787 8.54315L7.67638 7.36464L10.0334 9.72168Z" fill="#1E1E1E" fill-opacity="0.5"/>
</g>
</svg>
