<svg width="20" height="20" viewBox="0 0 20 20" fill="none" xmlns="http://www.w3.org/2000/svg">
<g id="equalizer-line">
<path id="Vector" d="M5.14226 15C5.48546 14.029 6.41149 13.3333 7.5 13.3333C8.5885 13.3333 9.51459 14.029 9.85775 15H18.3333V16.6667H9.85775C9.51459 17.6377 8.5885 18.3333 7.5 18.3333C6.41149 18.3333 5.48546 17.6377 5.14226 16.6667H1.66667V15H5.14226ZM10.1423 9.16666C10.4854 8.19566 11.4115 7.49999 12.5 7.49999C13.5885 7.49999 14.5146 8.19566 14.8578 9.16666H18.3333V10.8333H14.8578C14.5146 11.8043 13.5885 12.5 12.5 12.5C11.4115 12.5 10.4854 11.8043 10.1423 10.8333H1.66667V9.16666H10.1423ZM5.14226 3.33332C5.48546 2.36233 6.41149 1.66666 7.5 1.66666C8.5885 1.66666 9.51459 2.36233 9.85775 3.33332H18.3333V4.99999H9.85775C9.51459 5.97098 8.5885 6.66666 7.5 6.66666C6.41149 6.66666 5.48546 5.97098 5.14226 4.99999H1.66667V3.33332H5.14226ZM7.5 4.99999C7.96024 4.99999 8.33334 4.62689 8.33334 4.16666C8.33334 3.70642 7.96024 3.33332 7.5 3.33332C7.03977 3.33332 6.66667 3.70642 6.66667 4.16666C6.66667 4.62689 7.03977 4.99999 7.5 4.99999ZM12.5 10.8333C12.9603 10.8333 13.3333 10.4602 13.3333 9.99999C13.3333 9.53974 12.9603 9.16666 12.5 9.16666C12.0398 9.16666 11.6667 9.53974 11.6667 9.99999C11.6667 10.4602 12.0398 10.8333 12.5 10.8333ZM7.5 16.6667C7.96024 16.6667 8.33334 16.2936 8.33334 15.8333C8.33334 15.3731 7.96024 15 7.5 15C7.03977 15 6.66667 15.3731 6.66667 15.8333C6.66667 16.2936 7.03977 16.6667 7.5 16.6667Z" fill="#8A62A5"/>
</g>
</svg>
