<svg width="33" height="32" viewBox="0 0 33 32" fill="none" xmlns="http://www.w3.org/2000/svg">
<g id="image-line">
<path id="Vector" d="M4.48903 28C3.75869 28 3.16663 27.4068 3.16663 26.6755V5.32456C3.16663 4.59304 3.77371 4.00003 4.48903 4.00003H28.5109C29.2413 4.00003 29.8333 4.5933 29.8333 5.32456V26.6755C29.8333 27.407 29.2262 28 28.5109 28H4.48903ZM27.1666 20V6.6667H5.83329V25.3334L19.1666 12L27.1666 20ZM27.1666 23.7712L19.1666 15.7712L9.60453 25.3334H27.1666V23.7712ZM11.1666 14.6667C9.69387 14.6667 8.49996 13.4728 8.49996 12C8.49996 10.5273 9.69387 9.33336 11.1666 9.33336C12.6394 9.33336 13.8333 10.5273 13.8333 12C13.8333 13.4728 12.6394 14.6667 11.1666 14.6667Z" fill="#1E1E1E" fill-opacity="0.5"/>
</g>
</svg>
