<svg width="17" height="17" viewBox="0 0 17 17" fill="none" xmlns="http://www.w3.org/2000/svg">
<path d="M11.8334 2.23346C12.2016 2.23346 12.5 2.53194 12.5 2.90013V5.56679H14.5C14.8682 5.56679 15.1667 5.86527 15.1667 6.23346V12.9001C15.1667 13.2683 14.8682 13.5668 14.5 13.5668H12.5V14.9001C12.5 15.2683 12.2016 15.5668 11.8334 15.5668H5.16671C4.79852 15.5668 4.50004 15.2683 4.50004 14.9001V13.5668H2.50004C2.13185 13.5668 1.83337 13.2683 1.83337 12.9001V6.23346C1.83337 5.86527 2.13185 5.56679 2.50004 5.56679H4.50004V2.90013C4.50004 2.53194 4.79852 2.23346 5.16671 2.23346H11.8334ZM11.1667 12.2335H5.83337V14.2335H11.1667V12.2335ZM13.8334 6.90013H3.16671V12.2335H4.50004V11.5668C4.50004 11.1986 4.79852 10.9001 5.16671 10.9001H11.8334C12.2016 10.9001 12.5 11.1986 12.5 11.5668V12.2335H13.8334V6.90013ZM5.83337 7.56679V8.90013H3.83337V7.56679H5.83337ZM11.1667 3.56679H5.83337V5.56679H11.1667V3.56679Z" fill="#964FA7"/>
</svg>
