<svg width="14" height="14" viewBox="0 0 14 14" fill="none" xmlns="http://www.w3.org/2000/svg">
<path d="M7.00004 13.6667C3.31814 13.6667 0.333374 10.6819 0.333374 7.00001C0.333374 3.31811 3.31814 0.333344 7.00004 0.333344C10.6819 0.333344 13.6667 3.31811 13.6667 7.00001C13.6667 10.6819 10.6819 13.6667 7.00004 13.6667ZM7.00004 12.3333C9.94557 12.3333 12.3334 9.94554 12.3334 7.00001C12.3334 4.05449 9.94557 1.66668 7.00004 1.66668C4.05452 1.66668 1.66671 4.05449 1.66671 7.00001C1.66671 9.94554 4.05452 12.3333 7.00004 12.3333ZM7.00004 6.05721L8.88564 4.17158L9.82844 5.11439L7.94284 7.00001L9.82844 8.88561L8.88564 9.82841L7.00004 7.94281L5.11442 9.82841L4.17161 8.88561L6.05724 7.00001L4.17161 5.11439L5.11442 4.17158L7.00004 6.05721Z" fill="#E7625F"/>
</svg>
